<?xml version="1.0" encoding="UTF-8"?>
<svg version="1.1" viewBox="0 0 900 900" width="225" height="225" xmlns="http://www.w3.org/2000/svg">
<path transform="translate(0)" d="m0 0h900v900h-900z" fill="#DDDDDC"/>
<path transform="translate(186,125)" d="m0 0h542l2 5 1 7 1 27v477l-3 21-6 25-8 26-7 15-11 22-7 10-9 11-5 7-6 5-3 4h-2l-2 4-12 12-11 8-9 7-15 9-22 11-19 7-22 6-24 5-17 2-3 1-15 1h-49l-37-4-31-6-24-7-14-5-11-5-2-1v-2l-7-2-11-6v-2l-5-1v-2l-5-1v-2h-3v-2h-3v-2h-3v-2h-3l-1-2-3-1-5-5-13-11-18-18-12-16-9-13-13-22-5-11-7-16-8-25-5-22-1-7z" fill="#DDDDDC"/>
<path transform="translate(344,206)" d="m0 0h89l2 6 1 4v16l-2 2-28 1-63 1-11 3-9 5-14 10-7 7-9 12-6 10-4 11-5 17-1 9v29l6 21 6 14v3h2v3h2v3h2l2 4 12 12 13 8 16 6 15 3 10 1 132 1-5-5-10-12-9-16-5-13-3-13v-26l3-13 4-10 8-15 10-13 11-10 14-9 12-6 17-4 7-1h20l14 2 13 4 16 8 12 9 12 12 2 5h2l-1-10-5-16-7-11-6-6v-2l-4-2-7-6-9-6-16-5v-2l-111-1-25-2-3-1-1-2v-18l1-5h124l15 3 14 5 18 10 12 9 10 9 10 11 7 11 6 9 3 10 1 1 1 10 1 2v180l-2 2-69 1-14 2-13 4-16 8-5 4h-2v2l-5 5-8 11-7 14-5 18-2 14-1 114-3 5-2 2-12-1-11-2-1-45-4 10-7 8-12 12-8 7-9 6-19 9-14 5-20 4-11 1-17-1-11-1-7-2-15-3-20-8-9-6v-2h-3v-2h-3v-2l-4-1v-2l-4-2-13-12-10-11-10-15-8-15-6-18-3-16v-36l4-19 4-12 7-14 9-14 11-13 11-11 14-10 10-7h2v-2l-6-2-4-2v-2l-5-2-4-2v-2l-4-2-12-11-11-15-8-14-6-16-5-18-2-13v-25l4-21 5-15 8-16 10-15 11-12 10-9 16-10 5-3 14-5z" fill="#262A8C"/>
<path transform="translate(186,125)" d="m0 0h542l2 5 1 7 1 27v477l-3 21-6 25-8 26-7 15-11 22-7 10-9 11-5 7-6 5-3 4h-2l-2 4-12 12-11 8-9 7-15 9-22 11-19 7-22 6-24 5-17 2-3 1-15 1h-49l-37-4-31-6-24-7-14-5-11-5-2-1v-2l-7-2-11-6v-2l-5-1v-2l-5-1v-2h-3v-2h-3v-2h-3v-2h-3l-1-2-3-1-5-5-13-11-18-18-12-16-9-13-13-22-5-11-7-16-8-25-5-22-1-7zm26 26-1 2 1 483 2 15 4 14 6 18 2 8 3 10h2l2 7 3 7h2l2 7h2l1 5h2l1 5 10 13 11 13 7 8 11 11 17 13 17 11 16 8 13 6 17 6 21 5 36 6 10 1 22 1h20l28-2 25-4 25-5 18-6 19-8 16-8 16-11 10-8 10-9 11-11 11-14 12-18 8-15 4-10 4-9 4-13 2-6 5-21 2-16 1-1v-488z" fill="#25298C"/>
<path transform="translate(478,522)" d="m0 0 2 2 5 25v25l-2 12-3 10-7 15-7 12-9 11-11 11-14 10-16 8-17 5-12 2h-23l-20-4-16-6-15-9-11-9-9-9-10-13-6-13-6-22-2-12v-14l2-16 2-9 3-8 3-2 192-1z" fill="#DDDDDC"/>
<path transform="translate(557,290)" d="m0 0h14l16 3 14 6 5 1v2l5 2 9 10 9 17 4 14 1 6v11l-4 17-5 12-10 13-10 9-11 7-12 5-9 2-9 1h-9l-15-2-15-6-13-9-9-9-9-13-3-9-1-8v-19l3-16 5-9 6-9 11-12 13-9 12-5z" fill="#DDDDDC"/>
<path transform="translate(577,502)" d="m0 0h8l9 4 4 5 4 1 2-4 7-5 3-1h8l8 5 5 4 3 6 10 9 5 4 3 8-1 6-4 7-4 3v5l7 9 1 2-1 10-6 8-11 9-5 11-5 2-9-1-10-3v65l-9-1-5-3v-60l-10 3h-5l-8-6v-2l-3-1-1-5h-2l-3-5-6-4-4-5-4-8v-8l6-8 4-4-2-4-6-5-2-3v-8l4-7 8-7 4-1 2-5 4-8z" fill="#00A257"/>
<path transform="translate(363,456)" d="m0 0h23l14 1 17 4 19 9 8 5v2l5 2 9 9 1 3 4 2 1 4h-166l-4-2 3-5h2l2-4 14-10 10-7 15-7 17-5z" fill="#DDDDDC"/>
<path transform="translate(729,130)" d="m0 0h1l1 7 1 27v477l-3 21-6 25-8 26-7 15-11 22-7 10-9 11-5 7-6 5-3 4h-2l-2 4-12 12-11 8-9 7-15 9-22 11-19 7-22 6-24 5-17 2-3 1-15 1h-49l-37-4-31-6-24-7-14-5-11-5-2-1v-2l5 1 26 10 28 8 29 5 33 3h34l25-2 29-5 20-5 30-10 15-7 14-7 11-6 11-8 5-4 5-3 13-12 11-11 10-13 7-10 11-19 6-12 8-19 7-22 4-17 3-20 1-12 1-332z" fill="#949499"/>
<path transform="translate(217,149)" d="m0 0h447l40 1v1l-9 1h-483l1 484 2 15 4 14 6 18 2 8 2 5-1 3-7-16-8-26-3-14-1-13v-478l1-2z" fill="#8A8A93"/>
<path transform="translate(657,268)" d="m0 0 4 5 4 10 1 2 1 10 1 2v180l-2 2-69 1-14 2-13 4-16 8-5 4h-2v2l-5 5-8 11-7 14-5 18-2 14-1 114-3 5-2 2-12-1-11-2 1-2 8 1h14v-117l3-25 4-12 3-7 4-4 4-8h2v-2h2l2-4 9-9 14-9 11-5 15-3h64l14 1-1-178-3-14-4-12z" fill="#919198"/>
<path transform="translate(640,411)" d="m0 0 2 1v40h-58l-17 3-9 4-17 9-12 9-10 10-5 2v-32l1-5 39-1 16-1 22-4 11-6 11-7 12-10 11-9z" fill="#8E8E96"/>
<path transform="translate(434,212)" d="m0 0 2 4v16l-2 2-28 1-63 1-11 3-9 5-14 10-7 7-9 12-6 10-4 11-5 17-1 9v29l6 21 5 12-1 2-8-16-5-15-3-18v-10l2-18 5-17 7-16 10-14 11-12 10-8 11-6 8-3 8-1h91z" fill="#919197"/>
<path transform="translate(217,149)" d="m0 0h447l40 1v1l-9 1h-483-3l1-2z" fill="#8A8A94"/>
<path transform="translate(280,520)" d="m0 0h38l162 1-1 3-1-1-7 1-192 1-3 1-1 6-2 5-2 11-1 11v14l3 17 5 17 3 6-1 2-7-14-4-11-3-15v-26l3-17 4-10z" fill="#919197"/>
<path transform="translate(490,628)" d="m0 0h1l-1 7-4 10-7 8-12 12-8 7-9 6-19 9-14 5-20 4-11 1-17-1-11-1-7-2-15-3-20-8-7-5 2-1 10 5 21 7 15 3 8 1h24l26-6 17-7 16-8 13-10 9-8 4-5 3-3h2l2-5z" fill="#949499"/>
<path transform="translate(547,285)" d="m0 0h24l14 3 12 5 8 6-4 1-17-7-13-2h-14l-17 3-14 6-13 10-10 11-7 12-3 7-2 13v27l-2-3-2-9v-23l3-13 9-17 9-10 10-9 14-7 9-3z" fill="#919198"/>
<path transform="translate(364,451)" d="m0 0h23l14 2 21 7 15 9 2 3-6-2-16-8-17-4-14-1h-23l-14 3-16 6-11 6-22 16-5 6 3 3h-10l1-4 4-5 7-8 9-7 9-6 10-6 24-8z" fill="#929298"/>
<path transform="translate(640,415)" d="m0 0h1v37l-51-1-4-2 2-1 11-1 12-5 16-12 10-9z" fill="#DEDEDD"/>
<path transform="translate(651,796)" d="m0 0v3l-12 9-11 8-9 6-7 4-20 10-8 3-9 3-17 5-21 5-23 4h-2v2l-3 1-15 1h-49l-37-4-31-6-24-7-14-5-11-5-2-1v-2l5 1 26 10 28 8 29 5 33 3h34l25-2 29-5 20-5 30-10 15-7 14-7 11-6 11-8 5-4 5-3z" fill="#898993"/>
<path transform="translate(562,453)" d="m0 0h8l-3 2-9 4-17 9-12 9-10 10-5 2 3-6 1-4 1-24 1-1h41z" fill="#DBDBDA"/>
<path transform="translate(445,212)" d="m0 0h1l1 17 107 1 17 1 16 4 9 4v1l-8-1-3-1v-2l-111-1-25-2-3-1-1-2z" fill="#8E8E96"/>
<path transform="translate(457,453)" d="m0 0 34 1v37l-3-1-2-3v-3h-2l-8-10-19-19z" fill="#DBDBDA"/>
<path transform="translate(728,309)" d="m0 0h1v331l-3 22-7 30-6 17-5 12-9 19h-2l-2 7h-2l-2 5-6 9-10 14-4 2 2-4 10-13 8-13 8-14 5-10 8-19 7-22 4-17 3-20 1-12z" fill="#747487"/>
<path transform="translate(649,527)" d="m0 0 5 5 2 9-5 10-4 3v5l7 9 1 2-1 10-6 8-11 9-5 11-5 2-9-1-10-3v65l-9-1-2-2 9 1-1-33-2-14v-13l-1-4 3-2 9 1h9l6-3 8-9 8-7 6-8 1-6-3-5-6-8 1-7 3-1 5-10v-7l-3-4z" fill="#949499"/>
<path transform="translate(587,474)" d="m0 0h64l14 1v1h-29l-27 1h-24l-16 4-8 4-14 10-8 9-10 14-5 11-4 12-3 15-1 10-1 113h-1v-117l3-25 4-12 3-7 4-4 4-8h2v-2h2l2-4 9-9 14-9 11-5z" fill="#747487"/>
<path transform="translate(574,149)" d="m0 0h90l40 1v1l-9 1h-219l1-2z" fill="#8E8E96"/>
<path transform="translate(640,411)" d="m0 0 2 1v40h-1l-1-35-3 5-7 7-16 12-9 5-13 1 5-4 10-5 13-10 11-9z" fill="#7C7C8B"/>
<path transform="translate(343,230)" d="m0 0h91v1l-92 2-8 2-14 7-5 4-5 3-5 5h-2v2h-2l-2 4-9 11-6 10-1-3 6-10 7-9 9-10 11-9 11-6 8-3z" fill="#747487"/>
<path transform="translate(651,796)" d="m0 0v3l-12 9-11 8-9 6-7 4-20 10-8 3-9 3-17 5-21 5-23 4h-8v-1l29-5 20-5 30-10 15-7 14-7 11-6 11-8 5-4 5-3z" fill="#747487"/>
<path transform="translate(490,628)" d="m0 0 1 2-4 10-20 20h-2l-2 4-10 8-9 6-11 4-8 4-14 4-10 2h-6l3-2 20-5 23-10 11-7 10-8 8-7 4-5 3-3h2l2-5z" fill="#747487"/>
<path transform="translate(649,527)" d="m0 0 5 5 2 9-5 10-4 3v5l7 9 1 2-1 10-5 5-7 6-2-1 10-11 2-4-1-7-8-10 1-7 3-1 5-10v-7l-3-4z" fill="#8D8D95"/>
<path transform="translate(603,604)" d="m0 0h2l1 13v13h2v41l-9-1-2-2 9 1-1-33-2-14v-13l-1-4z" fill="#878792"/>
<path transform="translate(596,446)" d="m0 0h6l-3 2-11 1 2 2-13 2-15 1-5 1h-16l-2-2 1-1 30-2z" fill="#8F8F96"/>
<path transform="translate(593,602)" d="m0 0h2l1 2v62l1 2-3-1v-60l-10 3h-5l-8-6 2-1 6 3h8z" fill="#848492"/>
<path transform="translate(535,288)" d="m0 0 3 1-8 4-12 8-13 12-4 5-3 5-2-1 2-5 6-8 10-10 11-7z" fill="#747487"/>
<path transform="translate(309,676)" d="m0 0 5 2 18 7 19 5 14 2 15 1v1l-12 1h-10l-7-2-15-3-20-8-7-5z" fill="#8C8C95"/>
<path transform="translate(267,544)" d="m0 0h1v29l2 7 2 5 6 22 3 6-1 2-7-14-4-11-3-15v-26z" fill="#82828F"/>
<path transform="translate(212,647)" d="m0 0h2l5 18 6 18 2 8 2 5-1 3-7-16-8-26z" fill="#8C8C95"/>
<path transform="translate(364,451)" d="m0 0h23v1l-20 1-17 3-18 6-20 11h-3l9-6 10-6 24-8z" fill="#747487"/>
<path transform="translate(454,451)" d="m0 0 37 1 1 1v18h-1v-17h-33-3z" fill="#82828F"/>
<path transform="translate(326,830)" d="m0 0 5 1 26 10 6 2v2l-10-2-14-5-11-5-2-1z" fill="#8F8F97"/>
<path transform="translate(492,337)" d="m0 0 1 3-2 13v27l-2-3-1-5v-23l2-9z" fill="#929298"/>
<path transform="translate(497,856)" d="m0 0h15v2l-3 1-15 1h-15l2-3z" fill="#8C8C95"/>
<path transform="translate(273,343)" d="m0 0h1l1 5 2 1 6 21 5 12-1 2-8-16-5-15z" fill="#888892"/>
<path transform="translate(280,520)" d="m0 0h38v1l-36 1-7 2-5 14-1 6h-1v-7l4-14 2-2z" fill="#747487"/>
<path transform="translate(303,478)" d="m0 0 1 2-7 8-2 7 3 2h-10l1-4 4-5 7-8z" fill="#757587"/>
<path transform="translate(547,849)" d="m0 0m-5 1h5v2l-18 4-8 1h-9l2-2z" fill="#95959A"/>
<path transform="translate(657,268)" d="m0 0 4 5 4 10 1 2v10l-2 2-3-14-4-12z" fill="#8D8D95"/>
<path transform="translate(493,326)" d="m0 0 3 1-3 6-3 9-1 7-1 19h-1v-23l3-13z" fill="#747487"/>
<path transform="translate(637,592)" d="m0 0 2 1-5 6-3 5h-2v3h-12l-3-2 12-2 5-4z" fill="#676887"/>
<path transform="translate(653,568)" d="m0 0 2 2-1 10-5 5-7 6-2-1 10-11 2-4z" fill="#7F7F91"/>
<path transform="translate(605,603)" d="m0 0 9 1 1 3-7-1-1 24h-1l-1-13z" fill="#919197"/>
<path transform="translate(596,446)" d="m0 0h6l-3 2-11 1 2 2-15 2 1-4z" fill="#8D8D95"/>
<path transform="translate(603,604)" d="m0 0h2l1 13v19h-1l-2-14v-13l-1-4z" fill="#747487"/>
<path transform="translate(363,844)" d="m0 0 7 1 25 6v1h-9l-17-4-6-2z" fill="#8C8C94"/>
<path transform="translate(630,425)" d="m0 0 3 1-12 10-4 3-2-1 5-5 8-7z" fill="#95959A"/>
<path transform="translate(356,692)" d="m0 0 24 1v1l-12 1h-10l-2-1z" fill="#878792"/>
<path transform="translate(670,777)" d="m0 0v3l-16 16-2-1z" fill="#747487"/>
<path transform="translate(653,535)" d="m0 0h1v7l-4 8-6 3 1-3h2l5-10z" fill="#676787"/>
<path transform="translate(292,492)" d="m0 0h3v3l3 2h-10l1-4z" fill="#919198"/>
<path transform="translate(570,450)" d="m0 0h6l-1 3h-12l2-2z" fill="#9999A0"/>
<path transform="translate(583,234)" d="m0 0 9 3 4 3-8-1-3-1z" fill="#8C8C95"/>
<path transform="translate(650,579)" d="m0 0v3l-4 6-4 3-2-1z" fill="#494B89"/>
</svg>
