<?xml version="1.0" encoding="UTF-8"?>
<svg version="1.1" viewBox="0 0 2048 2048" width="512" height="512" xmlns="http://www.w3.org/2000/svg">
<path transform="translate(824,471)" d="m0 0h160l1 4 3 32v17l-5 3-11 1-74 1-35 2h-66l-24 1-21 3-10 3-13 5-2 1 10-1v3l-7 2-16 6-2 4-4 1-2 4-4 3-4 1-3 7-8 4 1 5-4 4h-4l1 4-2 4h-2v4h-4v-2h-2l-6 18h-2l-1 2-1-2-5 10-3 7-3 3-7 15-4 1-3 3-2 10-2-4-1 4-6 26-4 28-1 13v35l3 26 6 21 7 20 9 24 8 15 8 12 11 14 8 10 12 12 16 14 5 3 5 2 3 6 12 6 7 3 24 8 24 6 25 4 50 2h248l12-2 2-2-2-5-7-1-4-3v-9l-7-1-3-3-2-7-6-4-4-8-4-5-4-8-1-4h-3v-2l-3-2-2-9-3-10-3-2-3-12-3-17-4-9-1-4-1-28v-17l1-27 2-10 4-7 4-21 2-4h2l2-6 5-11 6-10 5-10 5-8 9-11 6-8 20-20 6-3 9-7 7-4 5-5 8-3 7-6 9-4 4-3 21-5 10-4 7-2 28-2 4-1h31l20 1 21 3 36 11 14 5 10 6 8 6 12 8 14 11 29 29 4 5 2 1v-35l-6-10-5-13-14-20-7-9-2-4h-2l-6-7-11-9-9-9-10-7-15-10-16-8-20-8-9-3-8-1-38-1h-147l-20-1 4-2-94-1-5-2-1-4v-47l2-1h250l32 1 18 2 13 4 30 10 15 8 16 7 11 6 11 8 13 9 10 7 5 5 8 7 6 7v2l3 1 8 11 4 4 3 7 6 4 6 9 4 7 5 8 10 27 5 14 3 7 2 28 1 312 1 46 2 35v12h-8l-3-2h-10l-4 1-9 1h-15l-11 1-4-1 2-3-4-1h-87l-51 3-9 2-15 6-1 4-2 2-14 5h-2l-2 6-10 6h-2v2h-4v2l-5 4h-2l-1 3h-2l-2 5-8 9-9 11-3 4-5 1-5 7-6 4-10 23-1 4-1 13-4 13h-1l-1-11-6 18-2 17v23l-4 54-1 23v42l1 113v43l-1 4-2 1h-36l-15-2-1-86-1-18-9 11-3 1 1-8-3 10-4 10-7 4-3 5h-2l-2 4-5 1v5l-3 3-4 5-4 4-7 8-2 1-2-1 1 3-6 5-9 2-5 2h5l-2 4-10 6-5 1h-2l-1 3-12 8-2 3-8 4-5 3-5 4-10 4-12 3-20 7-11 4-15 2-12 2-19 1h-63l-22-1-17-3-17-4-25-8-10-4-14-4-15-9-12-7-8-7-11-7-10-7-10-9-8-7-22-22-9-11-8-9-3-5-5-5-6-11v-2l-4-2-5-15-5-2-5-15-4-5-6-23-4-11-4-21h-3-3l-1-5 1-5v-97l1-24 5-2 4-28 3-3h2l3-24 4-1 4 1 2-12 7-9 11-24 3-6 5-2 5-8 4-5 5-4 6-8 7-8 2-4 5-3 6-9 8-5 11-9 6-4 6-5 8-5 17-10 7-6 1-4-7-6-17-11-9-4-1-5-7-1-5-4-5-5-11-9-5-5-9-10-4-7-5-5-2-8-4-1-6-7-6-11-1-3-5-5-4-10-3-8-3-1-3-9-1-9v-3l-5-1-11-44-5-29-2-6-2-18v-36l3-17 3-20 2-26 1-1 7-1 2-8 1-15 6-6 4-12 4-6 5-16 4-1 9-16 9-12 7-9 4-4 3-5 8-5 4-7 13-12 16-12 3-3 7-4 9-6 18-11 12-5 21-6 11-2 30-2zm-99 74m-47 44m-1 1m-4 5 1 2zm574 55-8 2v1l6 1 29 1 17 2-42-1-13-2-19 5-16 8-8 6-9 7-10 9-4 4-6 3-13 11-8 7-4 3v2l-4 2-5 8-4 14-5 4-4 12-6 26-1 11v40l3 22 5 16 6 9 3 4 4 11 4 2 3 9 6 3h2l2 10 2 2 6 1 4 8 5 4 2-1 6 5 5 5 8 6 9 4 9 2 5 5 17 5h3v2l10 2 26 2h23l7-1 17-1 3-1 4 1v-2h-2v-3l15-3 12-6 11-4 5-4 10-5 3-5v-2l9-3 3-4v-2l5-2 10-8 4-6 5-3 7-10 4-5 4-7 3-5 5-18 5-13 3-16 2-15v-25l-5-33-2-4h-5v-9l-3-10-2-1-3 1-1-9-3-9-6-4-8-7-5-9-5-3h-2l-2-7-9-6-5-5-8-6-2-4-10-4-18-6-10-4-21-5-15-2zm-77 40m282 255-9 5-4 6-2 5-4 3v2l-5 2v2l-3 1v4l-4 2-13 11-18 12-12 5-17 6-2 2 7-1v2l-15 2-23 7-33 5-31 3-36-1-7 1h-16v-2l-19-1-3 3-1 4-7-1-3 4-2 15-2 4v15l1 13 4 10 1 1 1 8 13-1 5-10 6-3 6-7 6-4 24-18 17-10 11-5 12-4 5-3 15-4 13-5 16-3h25l40 1h63l6-1 1-3 1-11v-32l-1-25-3-10zm-381 85-24 2-3 1 2 5 6 8h5l2 6 7 8 15 15 10 12 8 11 8 9 6 11 3 1 2-6 1-4 1-18v-14l-2-33-1-14zm-209 0-48 2-16 2-18 7-9 5-20 5-10 4 4 1 10-3-14 7-12 3-8 5-8 2-2 3v3l-6 2-10 8-2 1-3 6-8 6-7 7-6 5-6 7-7 6 1 3 7 2 17 2h37l58-1 219 1h56l3-2v-6l-7-8-10-12-8-7-5-5-10-8-15-13-14-8-3-5-15-6-11-5-15-5-26-7-28-4zm-122 26m-2 1m-5 2m745 25m-851 103-8 4-3 3v11l-1 10-4 2v27l-1 19v59l2 15 9 26 5 13 3 10 5 8 4 10 5 4 7 11 11 13 9 11 11 11 8 7 6 5 5 7 12 6 20 14 16 8 18 8 21 6 11 4 31 4 12 1h40l5-2 25-3 16-6 7-2 9-1 8-4 3-3 10-4 8-5 13-5 5-5 10-7 8-6 13-11 1-3 5-2 5-5 7-8 7-7 8-11 5-5 4-5 3-9 6-3 3-9 1-6 5-2 3-7 2-10 3-1 3-10 3-17 3-7 2-5 2-38 1-6v-19l-3-39-2-17h-3l-3-20-3-1-14 1h-109l-44-1-241-1zm544 80-1 7v10l2-4v-13z" fill="#2B2B89"/>
<path transform="translate(1601,282)" d="m0 0 16 1h23l7 1 6 4 5 1 1 2-1 702v400l-1 63-1 1-2 22-12 63-6 33-5 21-6 9-3 10-3 1-14 28-5 12-7 19v3l-2 6-3 3v-8l-5 10-4 13-1 3-1-4-2 1-1 4-1 7v5l-4 2-1-4-5 12h-2l1 6-1 2-4-1-2-4-6 14-6 3v7l-2 3h-4l2 4-1 4h-3l-2-4 1 4-4 1h-2l-3 8-4 4h-2l-2 5-2 3h-7l-2 13-4-1-1 4h-5l-2 3h-1l-2 10-5 1h-3l-5 4v6h-3v3l-8 2h-4l-1 3h-3v2l-3 1-3-1-2 6-5 3-12 4v4h-4v4l-9 5-10 5-8 6-10 6-5 2-5 3h2l-1 4-8 3-5 2-12 3-14 5-8 3-13 5-8 3-41 13-23 7-7 2-5 1-1 2-21 4-60 7-45 2-39 1h-31l-67-3-26-2-52-7-22-3-8-3-44-13-15-5-19-5-10-4 4-1 3 1-24-9-25-9-13-6-11-6-20-12-51-34-5-5-13-10-14-12-10-9-8-7-5-6-8-7-12-12-7-9-6-8-1-4-4-2-8-10-9-10-6-9-1-3-3-1-4-7-2-9-6-1-2-6-3-11-3-1-13-23-3-5-4-8-1-10-4 1-3-3-6-17-5-12-4-11-5-12-3-12-4-8-7-23-3-3-4-26-4-13-6-47-2-21-1-23v-1113h1109zm-1096 58-18 2-9 3-1 2v74l-1 51-1 78-1 39v171l-1 22v63l1 19 1 130v156l-1 45v49l2 196 2 15 3 10 6 34 6 24 4 9 12 36 7 17 22 43 5 10 13 20 7 11 10 13 11 13 9 11 10 13 3 4 1 1 2 4 9 10 10 10 8 7 7 5 6 8 9 7 4 3h2l2 4 10 8 16 12 9 6 17 9 14 9 28 14 27 11 5 3 21 7 11 4 17 5h2v2l4 2 26 4 7 4 57 8 36 3 37 2h70l67-3 21-2 37-6 23-3 29-9 13-5 17-1 2-1 2-5 17-5 11-5 12-4 13-8 5-3 6-4 12-4 5-4 10-5 3-4 12-5 5-3 4-5 11-7 13-10 8-7 10-9 8-6 9-10 8-7 7-8 5-6 7-8 2-4h2l7-10 7-7 5-10 5-6 4-8 12-20 6-9 12-22 10-22 4-14 3-1 4-10 5-19 4-13 3-16 3-2 2-7 5-30 3-17 2-56 1-85 1-508v-188l-1-197v-102h-51l-442 1h-429l-111-1zm1019 1428 1 2 1-2zm-34 41 1 2zm-19 11 1 2h2v-2zm3 3v2l2-1zm-1 2m-48 30 1 2 1-2zm-46 31v2h2v-2z" fill="#2D2D8A"/>
<path transform="translate(1418,1143)" d="m0 0 4 1v2l5 2 8 5 3 5 4 2 7 12h3l2 1-1 4 10 8 5 5 10 9 5 5 3 6v14l-2 17-3 6-8 7-4 3-1 10 2 7 9 8 2 5 4 2 3 5 1 6v8l-3 11-5 10-4 2-4-2-2 6-6 5-5 1 2 5-7 4h-2l-2 6-5 6-3 8-7 3-2 6-7 2h-24l-7-2-5-3-11 1v15l2 26 1 41v65l-1 1h-9l-14-3-6-3-2-3-1-10v-46l3-6 2-22v-53l-20 3-4 1h-15l-3-1v-2l-7-3-5-2-4-5-4-8-7-9-2-4-1-8-5-1-10-6-6-7-5-4-5-10-5-4v-9l2-12 9-14 5-6 3-8-1-7-8-5-3-10v-4l-5-1-3-3 1-11 1-9 3-4h3l3-10 3-4h2l1 2 8-8 11-8 5-10 5-5 3-4 2-7 5-4 1 2h2l3-4 5-1h5l3-1h17l1 5 2 1 1-2 2 4 10 2 3 3 2 6h9l3-6 1-1 12-1v-9h12l12-1 2-1h7z" fill="#029F54"/>
<path transform="translate(1014,472)" d="m0 0h1l1 49 2 2 42 1 210 1 35 2 14 3v1l-43-1h-147l-20-1 4-2-94-1-5-2-1-4v-47z" fill="#FDFDFD"/>
<path transform="translate(1378,1371)" d="m0 0 8 1 18 6 8 2v1h-9l-7-2-5-3-11 1v15l2 26 1 41v65l-1 1h-9l-14-3 4-1 17 2-1-69-1-24-1-8-1-3h-2l-2-4-5-3v-11l1-4-1-5 1-8v-7l5-5z" fill="#FDFDFD"/>
<path transform="translate(816,525)" d="m0 0h169l-2 2-11 1-74 1-35 2h-66l-33 1v-1l21-3 8-2z" fill="#FDFDFD"/>
<path transform="translate(926,1186)" d="m0 0h166l-1 3-16 1h-109l-44-1-241-1v-1z" fill="#FDFDFD"/>
<path transform="translate(1450,1171)" d="m0 0 4 2-1 4 10 8 5 5 10 9 5 5 3 6v14l-2 17-3 6-8 7-4 3-1 10 2 7 9 8 2 5 4 2 3 5 1 6v8l-3 11-5 10-4 2-4-4h3l2-5 3-5 2-10v-4h-2l-3-11-4-8-7-9-4-8v-9l5-5 8-5 3-4h2l-1-24 1-10-6-9-6-7-8-7-11-10-2-5z" fill="#FDFDFD"/>
<path transform="translate(1427,1853)" d="m0 0 4 2-1 3-9 5-10 5-8 6-10 6-5 2-5 3h2l-1 4-8 3-5 2-12 3-14 5-8 3-13 5-8 3-41 13-9 3-4-1 26-9 13-4 19-7 18-7 5-3 13-5 8-4 15-6 12-6 3-2h4v-5l6-2 6-4 5-1 7-4 2-5zm-2 2 1 2 1-2zm-46 31v2h2v-2z" fill="#FDFDFD"/>
<path transform="translate(1176,1249)" d="m0 0h1v20l-4 54-1 23v155h-1l-1-76-1-112v-33h2v-16l2-7h1v14z" fill="#FDFDFD"/>
<path transform="translate(776,1129)" d="m0 0 214 1v1l-98 1h-208v-1l34-1z" fill="#FDFDFD"/>
<path transform="translate(948,1891)" d="m0 0h12l50 3h70l48-2h19v1l-36 3-49 2h-21l-39-1-46-4-8-1z" fill="#FDFDFD"/>
<path transform="translate(611,1224)" d="m0 0h1v20l-1 19v68h-1l-2-13-3-11-1-9-1-21 1-11 2 4v18l2-31 2-16v-13z" fill="#FDFDFD"/>
<path transform="translate(1440,953)" d="m0 0v3l-2 5-7 6-5 4-1 4-11 9-12 9-14 9-10 4-17 6h5v2l-7 2-18 3 2-2 13-5 8-4 15-7 9-2 8-5 11-8 8-6 7-8 5-5z" fill="#FDFDFD"/>
<path transform="translate(1314,1024)" d="m0 0h9v1l-38 5-21 2-36-1-7 1h-13l-3-1v-2h-11v-1h83z" fill="#FDFDFD"/>
<path transform="translate(1354,1447)" d="m0 0h1v24l-1 33-1 14-2-2-1-10v-46l3-6z" fill="#FDFDFD"/>
<path transform="translate(1443,1357)" d="m0 0v3l-7 10-2 4-3 2 2 1-6 4h-15l-10-3v-1l13-2 11-5 9-5z" fill="#32328D"/>
<path transform="translate(1100,1231)" d="m0 0h1l3 18 1 11v33l-3 21-1 5h-1v-12l1-17 1-6v-19l-2-24z" fill="#FDFDFD"/>
<path transform="translate(1602,1335)" d="m0 0h1l1 20-1 95-2 22h-1v-25l1-27z" fill="#FDFDFD"/>
<path transform="translate(1457,1341)" d="m0 0 4 2v4l-6 3h-2l-2 6-5 6-3 8-7 3-2 6-5 1 2-3-2-1 2-2h3l1-4 8-11 6-9 6-5z" fill="#FAFAFB"/>
<path transform="translate(1492,1803)" d="m0 0h3l-1 3h-1l-2 10-5 1h-3l-5 4v6h-3v3l-8 2h-4l-1 3h-3v2l-3 1-3-1-2 6-3-1 4-6 10-3v-2l7-2v-4l2-2-2-2h3l2 1v-2h3v-3h2l1-3h2l2-3 3 2h2v-5h2zm-2 6 1 2zm-16 14v2l2-1z" fill="#FDFDFD"/>
<path transform="translate(1257,1929)" d="m0 0h5l-3 2-14 4-5 1-1 2-21 4-26 3h-7v-1l52-10z" fill="#FDFDFD"/>
<path transform="translate(1324,1026)" d="m0 0h25l40 1v1l-53 1-21 2-10 2h-5l3-2 10-3z" fill="#FDFDFD"/>
<path transform="translate(1601,282)" d="m0 0 16 1h23l7 1v1h-50l-67-1v-1z" fill="#FDFDFD"/>
<path transform="translate(1457,943)" d="m0 0h3l1 15v58l-1 12h-8v-1h6l1-14v-32l-1-25-3-10-3-2z" fill="#FDFDFD"/>
<path transform="translate(1237,652)" d="m0 0 8 1 29 1 21 3v1h-16l-30-1-12-2z" fill="#FDFDFD"/>
<path transform="translate(956,1563)" d="m0 0h5l-4 3-13 4-5 2-15 2-12 2h-13v-1l17-2 24-6z" fill="#FDFDFD"/>
<path transform="translate(1345,1373)" d="m0 0h8l2 5h3v2h-2v11h-1v-12l-20 3-9 1 2-2 9-4z" fill="#FDFDFD"/>
<path transform="translate(1110,786)" d="m0 0h1v50l1 15-2-4-2-11-1-15v-15z" fill="#FDFDFD"/>
<path transform="translate(1473,1083)" d="m0 0h15l7 1-1 2-14 1h-13l-11 1-4-1 2-3z" fill="#FDFDFD"/>
<path transform="translate(1455,659)" d="m0 0h1l2 14 5 22-1 3-7-10-2-4 1-5z" fill="#FDFDFD"/>
<path transform="translate(1638,1553)" d="m0 0h1v7l-4 19-4 17-4 7-1-3 6-24 4-15z" fill="#FDFDFD"/>
<path transform="translate(1172,1093)" d="m0 0 3 3v8l8-1-6 7-6 5h-2v-8l2-4z" fill="#F9F9FA"/>
<path transform="translate(476,342)" d="m0 0h11v1l-9 3v75h-1z" fill="#FDFDFD"/>
<path transform="translate(1e3 1545)" d="m0 0 3 1-3 3-5 2-3 3-10 4-12 3-5 2-4-1 16-7 10-3z" fill="#FDFDFD"/>
<path transform="translate(757,1051)" d="m0 0 3 1-19 9-9 2-3-1 4-4 7-2z" fill="#FDFDFD"/>
<path transform="translate(1116,1436)" d="m0 0 2 2v10h-1v-5l-9 11-3 1 2-10 5-5h2z" fill="#FDFDFD"/>
<path transform="translate(695,1533)" d="m0 0 5 2 10 6 9 5v2l9 2 10 4 1 2-6-1-9-3-25-14z" fill="#FDFDFD"/>
<path transform="translate(1176,685)" d="m0 0 2 1-5 5h-2l-1 3-6 3-13 11-2-1 9-9 4-3h2l2-4 8-5z" fill="#FDFDFD"/>
<path transform="translate(1296,1365)" d="m0 0 5 5 15 8 1 3h2v2l-6-1v-2l-7-3-5-2-4-5z" fill="#FDFDFD"/>
<path transform="translate(685,578)" d="m0 0 3 3-1 3-3 3h-4l1 4-2 4h-2v4h-4v-6l4-5h2l1-3h2l3-4z" fill="#F7F7F9"/>
<path transform="translate(1654,1481)" d="m0 0h1v14l-3 19-2 3 1-16z" fill="#FDFDFD"/>
<path transform="translate(1031,1026)" d="m0 0 5 1 3 3 8 2-3 1 4 6-1 2-11-9z" fill="#FDFDFD"/>
<path transform="translate(735,543)" d="m0 0h2v3l-7 2-12 5-3-1 6-4 2-3z" fill="#FDFDFD"/>
<path transform="translate(1109,1025)" d="m0 0h9l-1 5h-35v-1l31-1z" fill="#FDFDFD"/>
<path transform="translate(1262,1250)" d="m0 0 5 1 5 3-1 6-6 5 1-10z" fill="#FDFDFD"/>
<path transform="translate(574,658)" d="m0 0 4 1-5 19h-1v-10l1-9z" fill="#FDFDFD"/>
<path transform="translate(1067,1498)" d="m0 0v3l-7 6-2-1 1 3-6 5h-3v-2l6-4 1-3 4-3z" fill="#FDFDFD"/>
<path transform="translate(1515,1075)" d="m0 0h1v12h-8l-3-3 10-1z" fill="#FDFDFD"/>
<path transform="translate(657,1127)" d="m0 0 24 3v1h-19l-5-2z" fill="#FDFDFD"/>
<path transform="translate(1505,1792)" d="m0 0h2l-1 8-4-1-1 4h-6v-2l4-1 1-3 5-1z" fill="#FDFDFD"/>
<path transform="translate(780,1906)" d="m0 0 6 1 9 2 4 1 1 3-10-2-10-4z" fill="#FDFDFD"/>
<path transform="translate(1593,1670)" d="m0 0 1 3-2 4 1 3-4 7-1-3 3-12z" fill="#FDFDFD"/>
<path transform="translate(685,578)" d="m0 0 3 3-1 3-3 3h-4v2l-4 2 1-3h2l1-3h2l3-4z" fill="#FDFDFD"/>
<path transform="translate(1542,1751)" d="m0 0 1 4-2 3h-4l2 4-1 4h-3l1-9 5-1z" fill="#FDFDFD"/>
<path transform="translate(556,1329)" d="m0 0h1l2 11-4 1-1-5z" fill="#FDFDFD"/>
<path transform="translate(1471,1329)" d="m0 0 2 2-3 5-5 4h-5l4-3 4-2z" fill="#FDFDFD"/>
<path transform="translate(1183,1029)" d="m0 0 1 2-2 4-7-1 2-3z" fill="#FDFDFD"/>
<path transform="translate(1189,1210)" d="m0 0 1 3-3 9h-1l-1-8 2-3 2 1z" fill="#ECECF4"/>
<path transform="translate(632,664)" d="m0 0h1l-1 9-2 9h-1l1-12z" fill="#FDFDFD"/>
<path transform="translate(1432,1084)" d="m0 0h14v1h-14z" fill="#FDFDFD"/>
<path transform="translate(1206,1171)" d="m0 0 2 1-1 3h-2z" fill="#FDFDFD"/>
<path transform="translate(684,591)" d="m0 0 1 2-3 3 1-4z" fill="#FDFDFD"/>
<path transform="translate(1201,1183)" d="m0 0 1 4-2 2z" fill="#FDFDFD"/>
<path transform="translate(1469,573)" d="m0 0 4 2-1 2z" fill="#C0C0DB"/>
<path transform="translate(1447,1084)" d="m0 0h6v1h-6z" fill="#FDFDFD"/>
<path transform="translate(998,1550)" d="m0 0 2 1h-3z" fill="#FDFDFD"/>
<path transform="translate(628,683)" d="m0 0 1 4z" fill="#FDFDFD"/>
<path transform="translate(699,570)" d="m0 0 1 2-2-1z" fill="#FDFDFD"/>
<path transform="translate(778,1905)" d="m0 0 2 1z" fill="#FDFDFD"/>
<path transform="translate(1593,1676)" d="m0 0" fill="#FDFDFD"/>
<path transform="translate(1019,1538)" d="m0 0 2 1z" fill="#FDFDFD"/>
<path transform="translate(1655,1477)" d="m0 0" fill="#FDFDFD"/>
<path transform="translate(1202,1181)" d="m0 0" fill="#FDFDFD"/>
<path transform="translate(1507,640)" d="m0 0" fill="#FDFDFD"/>
<path transform="translate(1358,1901)" d="m0 0" fill="#FDFDFD"/>
<path transform="translate(1359,1900)" d="m0 0" fill="#FDFDFD"/>
<path transform="translate(1619,1618)" d="m0 0" fill="#FDFDFD"/>
<path transform="translate(1021,1537)" d="m0 0" fill="#FDFDFD"/>
<path transform="translate(692,581)" d="m0 0" fill="#FDFDFD"/>
<path transform="translate(697,570)" d="m0 0" fill="#FDFDFD"/>
<path transform="translate(700,569)" d="m0 0" fill="#FDFDFD"/>
<path transform="translate(993,500)" d="m0 0" fill="#FDFDFD"/>
</svg>
