<?xml version="1.0" encoding="UTF-8"?>
<svg version="1.1" viewBox="0 0 2048 2048" width="512" height="512" xmlns="http://www.w3.org/2000/svg">
<path transform="translate(1044,983)" d="m0 0h11l14 4 8 7 5 8 6 17 11 34 11 38 21 63h3l1-102-1-42 1-23 1-2h47l47 1 14 2 10 6 8 9 3 9 1 11v49l-3 10-9 12-8 6-14 3h-55l1 32v28l-4 4h-39-2-39l-5-6-10-29v-3l-28-2h-16l-8 1-7 24-4 9-5 6h-121l-14-2-6-3-7-7-7-11-2-8v-120l4-10 7-11 8-6 10-3 87-1 2 1 1 5v30l-1 3-2 1-21 1-45 1-6 2-2 9v16h67l8 2 2 5v21l-1 12-1 1-10 1h-68l2 21 2 5 2 1 59 1 11 1 5 6 1 12v5l14-41 18-56 10-37 9-19 5-6 10-5zm143 43-9 1-1 5v28h36l9-2 2-4v-19l-2-6-1-1-9-1zm-138 17-4 13-6 22-1 5v7h24l1-1v-7l-5-21-6-17zm83 113 1 2zm0 3m0 3 1 2z" fill="#E61926"/>
<path transform="translate(710,985)" d="m0 0h60l36 1 13 2 10 5 7 9 3 8v122l-2 13-3 6-8 9-8 4-8 2-100 1-3-2-1-8-1-26v-15l1-10v-9l1-2-1-33-2-56-1-16 5-1zm41 41-1 1-2 26v55l1 16 2 1h41l5-2 1-4v-74l-2-14-2-2-13-2z" fill="#E61A27"/>
<path transform="translate(790,653)" d="m0 0 8 1 26 17 32 19 18 12 20 11 21 12 19 9 21 8 19 6 1-9 3-7 3-2h18l5 3 4 13v2l22-7 15-5 19-8 22-12 21-11 17-11 15-9 10-7 20-13 13-8 7-3 7-1-3 7-10 14-14 15-9 10-15 14-11 9-14 13-8 7-12 9-20 14-26 14-23 9-22 8-1 1-1 14v99l-1 1h-26l-4-4-1-26v-84l-19-8-19-10-11-6-14-9-11-7-16-12-12-10-11-9-15-13-15-14-6-5v-2l-4-2-17-16-11-11v-2l-4-2-2-4zm197 100-6 2v27l2 8 2 2 11-1 4-2 1-3v-28l-1-5z" fill="#E61A27"/>
<path transform="translate(608,984)" d="m0 0h84l2 1v2l4 2 1 4v26l-2 7-5 1-68 1-3 3-2 5-2 17 60 1 17 1 2 6 2 31-2 2-4 1-14 1h-60v14l3 13 52 1 19 1 3 2 2 4v35l-1 1h-80l-13-2-10-5-12-11-4-6-1-4-1-82v-28l2-16 6-12 9-10 9-5z" fill="#E61926"/>
<path transform="translate(1044,983)" d="m0 0h11l5 1v1l-14 1-9 3-8 7-6 12-18 57-16 50-15 49h39l-2 3h-121l-14-2-6-3-7-7-7-11-2-8v-120l4-10 7-11 8-6 10-3 87-1 2 1 1 5v30l-1 3-2 1-21 1-45 1-6 2-2 9v16h67l8 2 2 5v21l-1 12-1 1-10 1h-68l2 21 2 5 2 1 59 1 11 1 5 6 1 12v5l14-41 18-56 10-37 9-19 5-6 10-5z" fill="#E61D29"/>
<path transform="translate(1459,982)" d="m0 0h15l11 4 8 7 6 10 6 15 8 24 11 37 15 47 8 19 3 12-1 8-3 3h-29l-9-2-3-3-7-25-4-8-2-1-14-1h-28l-5 2-4 8-7 23-5 6h-37l-3-1 1-7 8-28 7-18 6-21 10-32 8-26 7-25 8-16 7-7zm9 61-5 11-6 21-2 9v6h10l16-2 1-4-8-28-5-13z" fill="#E61825"/>
<path transform="translate(1303,985)" d="m0 0h83l3 1 1 5v28l-3 6-1 1-13 1h-53l-4 3-2 6v10l3 5 5 2 6 1 27 1 15 2 8 4 7 7 3 6 1 8v53l-3 9-7 9-9 8-10 5-31 1h-54l-3-3-1-6 1-34 73-1 2-4v-16l-1-4-10-2-38-2-11-6-7-6-8-12-1-5v-48l2-11 7-12 7-6 9-3z" fill="#E61C29"/>
<path transform="translate(1137,987)" d="m0 0h102l9 3 8 6 6 7 3 9 1 11v49l-3 10-6 8-9 7-9 3-7 1-56 1v61l-3 2h-36zm50 39-9 1-1 5v28h36l9-2 2-4v-19l-2-6-1-1-9-1z" fill="#E61A27"/>
<path transform="translate(557,983)" d="m0 0 6 1 4 7 1 2 2 27-1 4-12 3-19 1h-47l-1 11v76l1 8h57l13 1 4 3 1 3v29l-2 7-7 1h-74l-12-2-6-4-10-9-6-12-2-13v-99l1-20 3-10 7-7 12-5 4-1 75-1z" fill="#E61A27"/>
<path transform="translate(1084,784)" d="m0 0h13l15 3 12 6 11 9 9 10 7 14 4 13 1 13-2 15-5 13-7 11-12 12-8 5-14 5-13 2-16-1-13-3-12-7-11-9-7-10-8-16-2-8v-20l5-20 5-9 9-10 9-7 14-7zm-4 25-10 4-8 6-6 7-4 8-2 10v13l3 10 6 9 5 5 8 6 8 2h15l13-4 11-7 7-8 4-8 1-3v-16l-4-13-7-10-6-5-16-6z" fill="#E61825"/>
<path transform="translate(981,589)" d="m0 0h25l12 4 11 6 10 9 8 9 7 14 3 12v20l-4 15-6 12-9 11-8 7-10 6-10 3-7 1h-19l-14-2-11-6-13-10-8-10-7-13-3-16v-15l2-13 5-12 8-11 10-10 10-6 12-4zm7 23-9 2-8 4-10 9-5 8-3 7-1 5v14l4 13 7 9 8 7 9 4 5 1h14l10-3 10-7 8-9 4-8 1-4v-21l-3-9-7-9-8-7-11-5-6-1z" fill="#E61825"/>
<path transform="translate(884,783)" d="m0 0 16 1 16 4 14 7 10 9 7 8 7 14 3 12v22l-3 13-8 15-9 10-11 8-13 5-18 3h-8l-14-3-16-8-10-9-7-8-7-14-4-16v-13l4-20 5-10 11-13 8-7 10-6 10-3zm1 24-10 4-9 6-7 8-5 10-2 11 1 11 5 12 6 8 7 6 11 5h16l13-3 8-5 9-8 4-6 2-9v-17l-3-10-6-10-8-7-9-4-10-2z" fill="#E61B28"/>
<path transform="translate(1136,985)" d="m0 0h47l47 1v1h-93v178l36-1 2-1v-61l1-1 56-1 11-2 8-4 5-4-2 4-8 6-14 3h-55l1 32v28l-4 4h-39-2-39l-1-2 37-1-2-9-10-32-8-25 1-4 20 60h3l1-102-1-42 1-23zm-4 171 1 2zm0 3m0 3 1 2z" fill="#FEFEFE"/>
<path transform="translate(1194,653)" d="m0 0 2 1-6 11-9 11-22 24-14 13-11 9-14 13-8 7-12 9-20 14-6 2 4-4 12-8 16-12 10-9 8-7 10-9 8-7 17-17 6-5 7-8 11-11 7-10 1-2-14 7-22 14-19 12-23 14-18 10-24 13-24 11-27 9-8 2h-7l-1-3v-11l2 3 2 9 22-7 15-5 19-8 22-12 21-11 17-11 15-9 10-7 20-13 13-8 7-3z" fill="#FEFEFE"/>
<path transform="translate(1044,983)" d="m0 0h11l5 1v1l-14 1-9 3-8 7-6 12-18 57-16 50-15 49h39l-2 3h-121l-14-2-6-3-4-5 5 2 11 4 8 1h79l2-36 3 3 1 12v5l14-41 18-56 10-37 9-19 5-6 10-5z" fill="#FEFEFE"/>
<path transform="translate(1084,784)" d="m0 0h13l15 3 12 6 11 9 9 10 7 14 4 13 1 13-2 15-5 13-7 11-12 12-8 5-14 5-13 2-16-1-13-3-12-7-11-9-7-10-8-16-2-8v-20l5-20 5-9 9-10 9-7 14-7zm6 2-15 2-15 6-11 8-8 7-7 11-5 14-1 6v18l3 12 5 12 8 11 10 9 14 7 11 3 6 1h14l13-3 12-6 9-7 8-8 8-14 4-14 1-15-2-12-4-11-7-12-13-13-12-7-13-4-5-1z" fill="#FEFEFE"/>
<path transform="translate(790,653)" d="m0 0 8 1 26 17 32 19 18 12 20 11 21 12 19 9 21 8 19 6 1-9 3-7 1 3-1 16-8-1-19-6-24-10-17-8-22-12-22-13-9-6-26-16-16-10-15-10-4-1v2l38 38 8 7 15 14 11 9 9 8h-3l-14-12-11-9-17-16-6-5v-2l-4-2-17-16-11-11v-2l-4-2-2-4z" fill="#FEFEFE"/>
<path transform="translate(981,589)" d="m0 0h25l12 4 11 6 10 9 8 9 7 14 3 12v20l-4 15-6 12-9 11-8 7-10 6-10 3-7 1h-19v-1l17-1 14-3 12-6 9-8h2l2-4 7-10 5-12 3-16v-9l-3-15-8-16-11-12-11-7-13-5-5-1h-23l-13 4-11 6-10 9-7 9-6 12-3 14v15l2 11 7 16 8 10 8 7 15 8 12 3v1h-9l-8-3-11-7-10-8-9-12-5-10-3-16v-15l2-13 5-12 8-11 10-10 10-6 12-4z" fill="#FEFEFE"/>
<path transform="translate(1084,806)" d="m0 0h17l9 4 6 4 7 6 7 11 4 13v13l-3 10-6 10-8 8-14 7-9 2-13-1-11-4-8-6-8-9-6-13-1-6v-11l3-12 7-11 9-8 10-5zm-4 3-10 4-8 6-6 7-4 8-2 10v13l3 10 6 9 5 5 8 6 8 2h15l13-4 11-7 7-8 4-8 1-3v-16l-4-13-7-10-6-5-16-6z" fill="#FEFEFE"/>
<path transform="translate(948,784)" d="m0 0 9 2 16 5 5 3 1 114 5 1h14l6 1v-115l7-3 7-2h5l-3 2-11 4-1 1-1 14v99l-1 1h-26l-4-4-1-26v-84l-19-8-8-4z" fill="#FEFEFE"/>
<path transform="translate(708,987)" d="m0 0h1v161l-1 16h88l17-1 9-3 4-3 2 1-7 5-11 3-100 1-3-2-1-8-1-26v-15l1-10v-9l1-2-1-33-2-56-1-16 5-1z" fill="#FEFEFE"/>
<path transform="translate(987,610)" d="m0 0h14l11 4 9 6 8 9 5 10 2 7v14l-3 11-9 14-11 8-11 4-10 1-14-2-11-6-8-8-6-10-3-9-1-6v-9l3-10 5-9 9-10 10-6zm1 2-9 2-8 4-10 9-5 8-3 7-1 5v14l4 13 7 9 8 7 9 4 5 1h14l10-3 10-7 8-9 4-8 1-4v-21l-3-9-7-9-8-7-11-5-6-1z" fill="#FEFEFE"/>
<path transform="translate(886,805)" d="m0 0h15l11 3 11 8 7 8 5 10 2 7v13l-3 12-6 10-8 8-12 6-8 2h-15l-11-4-12-9-6-9-4-9-2-7v-13l4-11 6-9 5-5 7-6 10-4zm-1 2-10 4-9 6-7 8-5 10-2 11 1 11 5 12 6 8 7 6 11 5h16l13-3 8-5 9-8 4-6 2-9v-17l-3-10-6-10-8-7-9-4-10-2z" fill="#FEFEFE"/>
<path transform="translate(884,783)" d="m0 0 16 1v1l-19 2-13 4-11 6-8 7-1 2h-2l-2 4-8 14-4 15v18l4 15 7 14 7 8 11 8 13 6 7 2 8 1h11l12-2 16-8 9-7 7-8 6-10 5-15h1l-1 9-8 16-6 8-10 9-14 7-14 3-16 1-14-3-16-8-10-9-7-8-7-14-4-16v-13l4-20 5-10 11-13 8-7 10-6 10-3z" fill="#FEFEFE"/>
<path transform="translate(1318,1095)" d="m0 0h29l2 4v23l-2 3-11 1h-62v38h77l9-1 12-6h3l-10 7-5 2-31 1h-54l-3-3-1-6 1-34 73-1 2-4v-16l-1-4-10-2-18-1z" fill="#FEFEFE"/>
<path transform="translate(508,1025)" d="m0 0h55v1l-6 1-19 1h-47l-1 11v76l1 8h57l13 1 2 2h-71l-3-2-2-11v-77l2-9 1-1z" fill="#FEFEFE"/>
<path transform="translate(749,1025)" d="m0 0h39l9 1 2 3 1 13v71l-1 11-1 1h-6l4-2 1-4v-74l-2-14-5-2-9-1-30-1-2 26v71l28 1v1h-28l-2-2v-97z" fill="#FEFEFE"/>
<path transform="translate(694,987)" d="m0 0 4 2 1 4v26l-2 7-5 1-68 1-3 3-2 5-2 17 60 1-4 2h-55l-2-1v-18l2-9 1-2 6-1h69z" fill="#FEFEFE"/>
<path transform="translate(608,984)" d="m0 0h84l2 2-74 1-15 1-10 5-8 7-7 12-2 12v90l1 22 3 13-4-4-2-6-1-82v-28l2-16 6-12 9-10 9-5z" fill="#FEFEFE"/>
<path transform="translate(996,751)" d="m0 0h7l2 2v40l-2 1h-23l-2-2v-39l1-1zm-9 2-6 2v27l2 8 2 2 11-1 4-2 1-3v-28l-1-5z" fill="#FEFEFE"/>
<path transform="translate(1493,995)" d="m0 0 4 4 7 16 9 27 11 37 15 47 8 19 3 12-1 8-2-4-13-42-10-31-14-45-10-31-6-14z" fill="#FEFEFE"/>
<path transform="translate(1459,982)" d="m0 0h15l11 4 8 7-1 2-7-6-8-3h-16l-10 5-7 8-6 15-12 38-13 42-4 12h-1l1-8 8-25 11-36 8-28 8-16 7-7z" fill="#FEFEFE"/>
<path transform="translate(1303,985)" d="m0 0h83v1l-39 1-47 1-10 3-6 4-6 8-3 9-1 8v44l2 9 2 5-4-4-2-3-1-5v-48l2-11 7-12 7-6 9-3z" fill="#FEFEFE"/>
<path transform="translate(694,1127)" d="m0 0 3 4v35l-1 1h-80l-13-2-8-4 2-1 9 3 16 1h71z" fill="#FEFEFE"/>
<path transform="translate(1176,1025)" d="m0 0h36l10 1 3 4 1 9v10l-2 9-5 3-26 1h-16l-2-2v-34zm11 1-9 1-1 5v28h36l9-2 2-4v-19l-2-6-1-1-9-1z" fill="#FEFEFE"/>
<path transform="translate(557,983)" d="m0 0 6 1 1 2-28 1-60 1-12 3-8 6-4 8-2 10-1 10h-1v-17l3-10 7-7 12-5 4-1 75-1z" fill="#FEFEFE"/>
<path transform="translate(455,1150)" d="m0 0 7 6 7 5 6 2 16 1h74l-1 2-7 1h-74l-12-2-6-4-10-9z" fill="#FEFEFE"/>
<path transform="translate(1444,1126)" d="m0 0h51l3 4 9 32-1 2-3-7-6-21-3-6-2-1-14-1h-28l-5 2-4 8-7 23-3 3 2-9 8-26z" fill="#FEFEFE"/>
<path transform="translate(815,988)" d="m0 0 7 1 9 6 6 9 2 6v122h-1l-1-114-2-10-5-9-5-5-5-3-5-2z" fill="#FEFEFE"/>
<path transform="translate(1405,1113)" d="m0 0 1 3-12 37-3 11h40l-2 3h-37l-3-1 1-7 8-28z" fill="#FEFEFE"/>
<path transform="translate(878,987)" d="m0 0h5l-4 2-10 6-8 10-4 9-1 3-1 119h-1v-120l4-10 7-11 8-6z" fill="#FEFEFE"/>
<path transform="translate(1064,986)" d="m0 0 5 1 8 7 5 8 6 17 11 34 6 21-1 4-14-43-9-29-6-11-7-6z" fill="#FEFEFE"/>
<path transform="translate(616,1095)" d="m0 0 2 1v14l3 13 52 1 19 1v1h-63l-9-1-3-5-1-3z" fill="#FEFEFE"/>
<path transform="translate(897,1026)" d="m0 0h7v1l-6 2-2 9v16h67l6 1v1h-75l-1-1v-18l2-9z" fill="#FEFEFE"/>
<path transform="translate(1507,1164)" d="m0 0h40v3l-1 1h-29l-9-2z" fill="#FEFEFE"/>
<path transform="translate(564,987)" d="m0 0 2 1 2 5 2 27-1 4-5 1z" fill="#FEFEFE"/>
<path transform="translate(1316,1026)" d="m0 0 4 1-4 3-2 6v10l3 5 5 2 6 1 27 1v1h-30l-11-2-2-4v-17l3-6z" fill="#FEFEFE"/>
<path transform="translate(694,1057)" d="m0 0 2 4 2 31-4 2z" fill="#FEFEFE"/>
<path transform="translate(1026,1126)" d="m0 0h9v1l-8 1-7 24-4 9-3 3 3-9 8-26z" fill="#FEFEFE"/>
<path transform="translate(894,1117)" d="m0 0 2 3 3 3 59 1v1l-49 1-13-1-2-4z" fill="#FEFEFE"/>
<path transform="translate(1049,1036)" d="m0 0h2l8 24-1 4-7-20-2-1-1 8-2 5-1-3z" fill="#FEFEFE"/>
<path transform="translate(1059,1064)" d="m0 0 2 2 6 20 1 4h-6v-8l-3-14z" fill="#FEFEFE"/>
<path transform="translate(1051,1126)" d="m0 0h28l3 6 1 8-2-3-2-5v-3l-28-2z" fill="#FEFEFE"/>
<path transform="translate(1478,1069)" d="m0 0 2 3 4 13v4l-3 1h-16v-1l16-2-2-10z" fill="#FEFEFE"/>
<path transform="translate(1466,1036)" d="m0 0 3 3 1 6-2-1-5 13-1-4z" fill="#FEFEFE"/>
</svg>
