<?xml version="1.0" encoding="UTF-8"?>
<svg version="1.1" viewBox="0 0 2048 532" width="1970" height="512" xmlns="http://www.w3.org/2000/svg">
<path transform="translate(1100,181)" d="m0 0h83l9 1 1 2 9 1 1 3 6 2 1 2 5 1v4h3l2 6 2 1 2 6 2 1v25l-2 2-2 9h-3v3l-4 1v3l-5 1v3l-2 1v2l10 6v2l5 2 3 3 1 4 3 2 1 7 3 1v28l-1 2h-3v7l-3 2-2 5h-2v3l-4 1v3l-4 4-4 1-2 3-10 1-1 3h-99v-169zm33 31v34l2 3h33l17-2 3-2v-2l4-2 1-4v-13l-3-8-2-1-1-3zm1 65-1 6v36l2 3 35-1 20-1 2-3 4-2 3-5v-20l-4-5-4-4h-4l-1-3-10-1z" fill="#2E3271"/>
<path transform="translate(629,181)" d="m0 0h30l1 4h3l1 4 3 3 1 4 3 1 1 6 3 1 2 6 2 2v4h4v7l3 1 3 6 2 3v2l3 2 1 5 3 2 1 6 3 1 2 7h2l2 5 5 8 5 10 4 6v2h3v-107l5-1h25l1 1v168l-1 1h-33l-4-8-1-4h-3l-2-7-2-1-2-5-2-2-1-6h-3l-1-5-3-1-1-6-3-3-4-8-3-3-2-6h-2l-2-7-3-3 1-3-4-1v-5l-3-1-7-14-2-2v-3h-4v104h-30l-1-4v-160z" fill="#2D3170"/>
<path transform="translate(783,182)" d="m0 0h81l2 2 13 1v4h7l1 3 4 1 1 3 3 1 1 3 2 1v3h4l1 4 3 3 1 5h3l2 9 2 4 1 9 2 2 1 7v38l-2 11-1 1-1 8-3 4-2 7-3 5-2 3h-2l-1 4h-2v3l-6 5-2 3-5 2-1 2h-6v4h-10v4h-85l-1-1zm35 29-1 1v108l3 2 8 1h11l2-2 23-1 1-4h7v-4l4-1v-6l4-1v-8h3v-57l-1-3h-2v-6l-2-3h-3v-4l-3-1v-2l-4-2v-2h-5v-4z" fill="#2D3170"/>
<path transform="translate(262,182)" d="m0 0h70l1 2 8 2 1 2 4 1 1 3 2 1v3h2l1 4 3 1v35l-1 9-3 1-1 5h-2l-1 3-4 1-1 3-2 1v2l5 2v2l6 2v2l3 1 2 5 2 1 1 3v38l-2 7-2 3v5l-8 8h-2v2l-6 2-1 3-12 2-2 2h-31l-31-1-1-36v-131zm39 30-1 31 1 4 14-1 4-5v-20l-3-7-1-2zm0 65-1 42 1 1h14l1-4 4-1v-26l-1-7h-2l-1-4-4-1z" fill="#2E3271"/>
<path transform="translate(1260,181)" d="m0 0h117v30l-1 1h-88v35h81v30l-40 1h-40l-1 42h69v1l-62 1 82 1v28h-120v-169z" fill="#2B2F6F"/>
<path transform="translate(955,181)" d="m0 0h17l1 123 3 5v3l3 1 5 5-1 2h5l1 2 6 1h22l1-3 5-1 2-3h2l-1-3h3l1-4h3v-127l1-1h34v113l-1 11h-2l-1 15-2 1-1 7h-3l-1 7h-4v4h-4l-1 4h-4l-1 4h-8v4l-9 1-1 2h-38l-6-2-10-1-1-3-7-2-1-2-5-2v-2l-4-2v-3l-4-1-2-6-2-1-1-7h-3l-1-22-1-111 1-5z" fill="#2C306F"/>
<path transform="translate(1403,183)" d="m0 0 31 1 1 1v136l21 1 60 1v28h-115l-1-1v-165z" fill="#2B2F6F"/>
<path transform="translate(1721,238)" d="m0 0h57l15 1 1 3 6 2 5 7v5l3 1v24l-4 8h-3l-1 4h-3v3l-9 2-3 6 4 2v2l4 1v3l4 2v4l4 2v4l3 1 2 5 2 1 2 6 2 1 3 6 2 2v5h-27l-2-6-3-1v-4l-3-1-1-4-3-2-1-5-3-2-2-6h-2l-4-7-2-4-4-2-3-2-13-1-1 47h-23v-112zm22 20v25l1 3 33-1 5-4 4-4-1-13-4-2v-3l-3-1z" fill="#2F3372"/>
<path transform="translate(205,181)" d="m0 0h38v169l-2 1-37-1v-168z" fill="#2B2F6F"/>
<path transform="translate(572,181)" d="m0 0h30v169l-1 1h-34v-169z" fill="#2B2F6F"/>
<path transform="translate(783,182)" d="m0 0h81l-3 2-23 1h-51v34h2l1-5 5-2v-11l9-3 7-3 3-2 3 2 13 1 1 3 1 5 1 4h7l3 2 14 1v1h-39v108l10 2 13-2h18l-3 1v2l-11 1h-44l1 4-1 1-9 2h-5v4h10v3l-5 2-5-1v10h70l4-2h8v4h-85l-1-1z" fill="#54588A"/>
<path transform="translate(1611,236)" d="m0 0h27l4 2 8 1v4h4l1 3 3 1v3l3 3 2 5-1 3h-13l-2-5-6-4-1-4-10-2-1-1h-7l-6 4-4 6-3 2-1 5v10l2 3 8 2h10l3 1 1 2 3 2-1 2h9l8 2 7 4v3l4 1 6 11 1 8v9l-3 12-3 2-1 3-2 1-1 3h-4v4h-5v4h-46l-3-3-5-2v-3h-3l-1-3-3-1-2-4h-2l-1-9-2-1v-12l5-1h13l3 1 4 9 3 5 6 3 7 1h9l6-2 5-1 1-4 2-2v-10l-3-1v-2l-3-1v-2l-12-2v-3l-2-3-10-1 3-2-5-1v-1h7l-4-4-3-2-10-1v2l3 1-5 1-8-1-1-3-3-1-3-7-1-1v-22l3-4 1-3 3-3 3-2 4-4 11-1zm27 10m-40 12-1 13 4-1 1-11zm54 0-1 2h10v-1zm-54 14-1 2 1 3 4-1-1-3zm13 6 2 2h7l-2-2zm-20 4m11 0v3l3-1z" fill="#2D3170"/>
<path transform="translate(1863,239)" d="m0 0h23v92h54v20h-77z" fill="#2D3170"/>
<path transform="translate(443,297)" d="m0 0h6l3 3 3 1v3l6 1v3l8 1 1 3v11l-2 12-2 31h-3l-2 4-5 1v3h-6v4h-6v4h-5v2l-7 2-1 3-5 2-1 2-3 1h-7l-3-1v-3l-7-1v-2l-7-3v-2l-5-1-1-3 1-4 6-1 2-3 4-2 1-2 5-1 1-3 5-2 1-4-12-6v-2l-5-1-1-3-7-2-1-2-7-4-4-2-2-2-3-1-3-3 1-8h3l1-5h2l2-7 3-3 1-3 7-1-1 3 7 1 3 3 2 1v2l6 1v3l7 2v2l6 2v2l6 1 2 1v2l8 1v-11l1-9h2v-7zm5 12-2 22h-2l-1 8h-8v-3l-7-1v-3l-5-2-2-2-4-1-3-3-13-8h-3v-2l-3-2h-5l-4 5v2l-3 1v6l7 5 5 2 2 2 3 1 3 3 5 1 1 3 6 3 5 2v2l10 5h2l-2 5-6 4-5 3-1 2-5 2-5 5 1 5 4 2 1 2h9v-3l6-1v-3h5l1-4 8-1v-2l5-1v-3l7-2 4-3 1-31h2v-16l-8-6z" fill="#41447D"/>
<path transform="translate(114,297)" d="m0 0h6l1 18 1 4v11l7-3 3-1 1-2 6-2 1-2 5-2 1-2 6-1v-2l7-1v-3l6-2v-2h9l4 5 4 7 3 3 3 7 1 4h-5l-1 3-8 4-3 2h-3v3l-6 1v2l-7 2v3l-6 2-2 2-5 2-1 4 5 4 4 2 1 2 5 2 1 2 3 1v3l5 1-1 4h-3v3l-5 1-1 3h-5l-1 4-7 1-1 3-5-1-1-2-5-2v-2l-5-1v-2l-6-3-7-5-4-2v-2l-6-2v-2l-7-2-3-3-1-34v-23l8-1-1-3 8-1v-3l6-1zm-3 12-10 4-1 4v44l4 1v3l5 2 2 3 5 3 4 2 3 3 9 5 5 3 6 1 5-3v-2l6-2-5-6-15-9-1-2-5-1 1-7 6-1 1-3 5-1 7-4 1-2 6-2 2-2 10-5 3-3 5-2 2-4-1-5-2-2-2-5-7 1-13 8-5 2v2l-6 2-2 2-5 2v2l-5 1-2 2-6 2v2l-5 1v-12l-2-22z" fill="#3E427C"/>
<path transform="translate(262,365)" d="m0 0h30l1 1v54h7v-3l9-1v-3l3-1h7v-3h5v31h-2l-1 3-6 2-1 2-5 1-1 3-8 1-1 3-7 1-1 3-7 1-1 3h-11l-3-2v-1l-7-1-1-3-7-1-1-3-8-2-1-2-6-2-1-2-6-1-4-4v-30h8v2l8 2v3l8 1 1 2 9 1-1-6v-48zm8 6-2 1-1 6-1 16v37h-5v-2l-10-3-2-2-7-1v-2l-6-1-1 2v13l9 5 4 3 7 1 1 3 6 1 2 3 5 1 1 2h12v-3h7l2-2v-1l7-2 1-2 7-2v-2l6-2v-2l4-1 1-14h-7l-1 3-8 1-1 2-6 2v2l-9 1v-58l-1-3z" fill="#474B82"/>
<path transform="translate(415,139)" d="m0 0h11l2 3 3 1v3l6 1 3 3 3 1 1 2 5 2 1 2 6 2 1 2 5 2 4 3 1 8 1 23 2 24-3 3h-3l-1 3-5 1-1 3-6 1v3l-9 1-2-5-1-25-1-1-7 1-1 2-5 2-2 2-5 1-1 3-6 1-2 3-8 4-3 1-1 2-5 1v3h-6l-2-6-3-3-1-4-2-1-3-6-1-1v-8l4-2h3v-3l6-2 1-2 6-2 2-2 3-1 3-3 4-1 3-3h4l1-3 6-1-2-5-6-4v-2l-6-1v-2l-4-1-2-3-3-1-2-3 1-5h5v-3l6-2 3-3 4-2zm2 8-7 4-1 1v5l13 9h2l2 4h3l2 4h2v3l-5 1v2l-6 1-1 4h-6l-2 3-6 2v2l-7 3-5 3v2l-6 1-6 4v6l4 6 4 3 5-1v-2l7-2 1-2 6-2 1-2 6-2v-2l5-2v-2l7-1 1-3 6-1v-3l8-1v8h2l1 23 5 1 4-1v-3l6-1v-15l-2-19-1-14-5-2-1-3-5-1-1-3-5-2-5-3h-2l-1-3-11-7z" fill="#40447D"/>
<path transform="translate(139,139)" d="m0 0h8v3l4 1 1 2 7 2v2l6 2 1 2 3 1-1 4-4 1v2l-6 1v3l-5 2-3 3h-3v2l-4 2-1 3 3 1 1 2 6 2v2l7 2v2l5 2v2l5 1v2l8 2v2l7 2v3l5 1-2 7h-2v4l-3 3-7 12h-9v-3l-7-1v-2l-5-2v-2l-7-2v-3l-6-1-3-3-3-1-1-2-7-4h-3l-2 13-1 2-2 16-8-1-2-1v-2l-6-2-7-3v-2l-4-2 1-34 1-7 1-1 1-15 5-2 2-2 4-2 1-2 5-1v-2l6-2v-2l8-1-1-3 7-2v-2l6-1zm2 9-7 3v3l-7 1v3l-5 1-1 2-6 2-1 2-4 1v3l-6 1-3 5-1 13v31l4 2 1 2 9 1 2-15v-16l8 1v2l6 1 1 3 9 5h2v2l5 2 1 2 7 2v2l6 1v3l6 3h6l2-5 2-3v-4l2-1-5-2v-2l-4-1v-2l-14-8-4-2-3-3-5-2-1-2-4-2-2-2-5-1v-2l-3-3 6-3v-2l4-1 3-3 2-1v-2l6-2 1-3h3l-1-5h-2l-1-3z" fill="#3F427C"/>
<path transform="translate(269,73)" d="m0 0h15l1 4h7l1 3 8 1-1 3 8 1v3l9 1v2l7 2v31l-12-1v-3l-9-1v-2l-10-2v54l-1 1h-23l-7-1v-2h2v-3h-3l-1-19v-30l-11 1-1 3-6 2v2l-9 1-2 3-4-1v-28l1-5 8-1v-3l7-2 1-2 7-1v-3l7-1v-2l2-1h7l-1-3zm0 8-1 4h-7v2l-11 3v2l-7 2v2l-6 1-2 5v13l5-1 9-3v-2l9-2 1-2 8-1-1 22v39h17l2-2v-59h10v3l2 1h7v3l7 1v2h6v-14l-1-3-7-2-1-2-8-1v-3l-7-1-1-3h-7l-1-4z" fill="#3E417B"/>
<path transform="translate(1611,236)" d="m0 0h27l4 2 8 1v4h4l1 3 3 1v3l3 3 2 5-1 3h-13l-2-5-6-4-1-4-10-2-1-1h-7l-6 4-4 6-3 2-1 5v10l2 3 8 2h10l3 1 1 2 3 2-1 2h9l8 2 2 2-2 6 1 2h-4l2 10-2 3 2 4v3h-2l-1 4-1-8-3-1v-2l-3-1v-2l-12-2v-3l-2-3-10-1 3-2-5-1v-1h7l-4-4-3-2-10-1v2l3 1-5 1-8-1-1-3-3-1-3-7-1-1v-22l3-4 1-3 3-3 3-2 4-4 11-1zm27 10m-40 12-1 13 4-1 1-11zm54 0-1 2h10v-1zm-54 14-1 2 1 3 4-1-1-3zm13 6 2 2h7l-2-2zm-20 4m11 0v3l3-1z" fill="#53578A"/>
<path transform="translate(1403,183)" d="m0 0 31 1 1 1v136l21 1 60 1v28h-115l-1-1v-165zm-1 2v137l1 21v7h110l-1-26-77-1-1-138z" fill="#626694"/>
<path transform="translate(1260,181)" d="m0 0h117v30l-1 1h-88v-1h85l-1-1h-84v-2l88-1-1-17h-2l-1-5-107-1v-1l-5-1z" fill="#70739D"/>
<path transform="translate(572,181)" d="m0 0h30v13h-1v-12l-3 2h-28v166h31v1h-34v-169z" fill="#565A8C"/>
<path transform="translate(1956,328)" d="m0 0h22v19l-2 4h-15l-5-1zm11 16 4 1z" fill="#5B5F8F"/>
<path transform="translate(893,239)" d="m0 0 11 2 4 4-3 7h2l3 7 1 5-4 2 5 6-7 2-7-2-1-3h3l-2-3-3-1-1-7-4-2 2-5h2l-3-10h2z" fill="#525689"/>
<path transform="translate(205,181)" d="m0 0h38v169l-2 1-37-1v-6l1 3h37v-165l-2 2-36 1z" fill="#525689"/>
<path transform="translate(1034,181)" d="m0 0h34v113l-1 11h-2v-11l1-2v-22l-1-70 1-2-1-2v-11l-29-1v-2z" fill="#6F729C"/>
<path transform="translate(955,181)" d="m0 0h17v118h-1v-117l-1 2h-29v114h-1l-1-111 1-5z" fill="#5A5E8E"/>
<path transform="translate(1100,181)" d="m0 0h83l9 1 1 3h-60l-34-1z" fill="#797CA3"/>
<path transform="translate(1373,207)" d="m0 0h3v5h-88v-1h85l-1-1h-84v-2z" fill="#525689"/>
<path transform="translate(1825,328)" d="m0 0h22v13h-2v3h-2v-3h-2v-2l-12-1v4l2 1-6 2-1-16zm11 8v1h5v-1z" fill="#585C8D"/>
<path transform="translate(1403,183)" d="m0 0 31 1v1h-32l1 4-1 105-2 1v-110z" fill="#8B8EB0"/>
<path transform="translate(1401,294)" d="m0 0h1l1 28 1 21-1 7h109v1h-111l-1-1v-55z" fill="#5E6191"/>
<path transform="translate(1307,273)" d="m0 0h62v4l-40 1h-27l4-2-18-1v-1z" fill="#636694"/>
<path transform="translate(1288,247)" d="m0 0h81l-1 4-80-1z" fill="#4A4E83"/>
<path transform="translate(262,342)" d="m0 0h1v5l75-1v1l-12 2-2 2h-31l-31-1z" fill="#656896"/>
<path transform="translate(659,242)" d="m0 0 4 1v4h-4v104h-30v-1h28v-85l-1-1v-21z" fill="#515588"/>
<path transform="translate(1753,285)" d="m0 0h11v1h-5v2l-3 1 1 3h2v2l3 1-1 6-4 3h-13l-1 2-1-5 4-1 1-11v-3z" fill="#535789"/>
<path transform="translate(1666,304)" d="m0 0 2 1 1 8v9l-3 12-3 2-1 3-2 1-2 3-1-3-4-1-1-2-3-2 1-8 4-2 4 1 4 2h3l1-9 1-3-1-7z" fill="#535789"/>
<path transform="translate(298,274)" d="m0 0h14l3 1 1 3-15-1v43h-4v-45z" fill="#7477A0"/>
<path transform="translate(260,111)" d="m0 0h2l1 36 1 3 2-1 1 14-1 2 17-1 2-1v3l-3 2-20 1v-2h2v-3h-3l-1-19z" fill="#7C7FA5"/>
<path transform="translate(970,347)" d="m0 0 20 3h25l9-1h11v2l-9 1-1 2h-38l-6-2-10-1z" fill="#6A6E99"/>
<path transform="translate(1288,320)" d="m0 0h69v1l-62 1 82 1v1h-89z" fill="#9EA1BD"/>
<path transform="translate(1170,320)" d="m0 0h18l-3 2-2 1-13 1h-36l1-3z" fill="#9799B7"/>
<path transform="translate(1034,181)" d="m0 0h34v18l-3-3v-11l-29-1v-2z" fill="#565A8C"/>
<path transform="translate(1592,339)" d="m0 0h2v2h5l4 4h10l3 2-1 2h33l2-1v3h-46l-3-3-5-2v-3h-3z" fill="#6D719B"/>
<path transform="translate(1181,347)" d="m0 0h18l-1 4h-95v-1l80-1z" fill="#525689"/>
<path transform="translate(262,365)" d="m0 0h30l1 1v54l2 1h-3l-2-46v-9h-28z" fill="#8487AB"/>
<path transform="translate(659,242)" d="m0 0 4 1v4h-4v54h-1l-1-36-1-1v-21z" fill="#565A8B"/>
<path transform="translate(883,253)" d="m0 0 4 1 1 4-1 20-2 2-1 14h-1z" fill="#7578A1"/>
<path transform="translate(861,347)" d="m0 0h8v4h-83v-1l71-1z" fill="#525689"/>
<path transform="translate(205,181)" d="m0 0h38l-3 3-36 1z" fill="#606493"/>
<path transform="translate(1512,323)" d="m0 0h4v28l-4-1z" fill="#7E81A7"/>
<path transform="translate(630,181)" d="m0 0h29l1 4h-13l-16-1z" fill="#6F729C"/>
<path transform="translate(290,112)" d="m0 0 6 1v2h-3v54h-1z" fill="#575B8C"/>
<path transform="translate(297,212)" d="m0 0h4v27h-1v-5h-3z" fill="#8284A9"/>
<path transform="translate(917,247)" d="m0 0h1v38l-2 11-1 1-1 8-2 1 1-19 1-2h2z" fill="#9799B8"/>
<path transform="translate(205,348)" d="m0 0h37l-1 3-36-1z" fill="#40437D"/>
<path transform="translate(1587,312)" d="m0 0h13l3 1 4 9 3 6-6-1-2-2-2-5-1-2 1-3-2-1-11-1z" fill="#5C6090"/>
<path transform="translate(99,314)" d="m0 0h2l-1 30h-1l-1-9-2-9v-10z" fill="#585C8D"/>
<path transform="translate(1447,320)" d="m0 0h69l-1 2-68-1z" fill="#FEFEFE"/>
<path transform="translate(1130,212)" d="m0 0h3v33h-1l-2-16z" fill="#525689"/>
<path transform="translate(1130,278)" d="m0 0h4l-1 23-3-4z" fill="#5F6292"/>
<path transform="translate(730,181)" d="m0 0h25l-1 3h-26v-2z" fill="#5A5E8E"/>
<path transform="translate(1181,347)" d="m0 0h18l-1 4h-14z" fill="#8A8CAF"/>
<path transform="translate(630,181)" d="m0 0h17v2l-2 1h-14z" fill="#505387"/>
<path transform="translate(447,310)" d="m0 0h1v10l-2 11h-2l1-12z" fill="#ACAEC6"/>
<path transform="translate(1666,304)" d="m0 0 2 1 1 8v9l-2 4-1-7 1-3-1-7z" fill="#6E729C"/>
<path transform="translate(861,347)" d="m0 0h8v4h-13l1-3z" fill="#9D9FBC"/>
<path transform="translate(1232,287)" d="m0 0 2 1v28l-1 2h-2l1-5z" fill="#9496B6"/>
<path transform="translate(148,390)" d="m0 0h3l-1 3-7 1-1 3-5-1-1-3h6z" fill="#8E91B2"/>
<path transform="translate(1721,236)" d="m0 0h37v1h-37z" fill="#FEFEFE"/>
<path transform="translate(1592,339)" d="m0 0h2v2h5l3 4v2h-5l-1-4h-3z" fill="#696D99"/>
<path transform="translate(950,332)" d="m0 0 4 2 8 8-4 1-1-3-4-2v-3l-4-1z" fill="#8386AA"/>
<path transform="translate(846,320)" d="m0 0h13l-3 1v2h-11z" fill="#525689"/>
<path transform="translate(301,274)" d="m0 0h11l3 1 1 3-13-1z" fill="#9DA0BC"/>
<path transform="translate(1065,287)" d="m0 0h2l-1 7-1 14h-1v-20z" fill="#626593"/>
<path transform="translate(93,355)" d="m0 0h1v5h2l2 7 1 2h-3l-3-3z" fill="#9497B6"/>
<path transform="translate(970,347)" d="m0 0 11 2v3l-10-1z" fill="#8386AA"/>
<path transform="translate(1620,331)" d="m0 0 11 1-1 3h-6l-4-2z" fill="#656896"/>
<path transform="translate(1132,309)" d="m0 0h1l1 14-3-1v-10z" fill="#585C8D"/>
<path transform="translate(1648,262)" d="m0 0 13 1-3 2h-8l-2-1z" fill="#525689"/>
<path transform="translate(1415,182)" d="m0 0h20v1h-20z" fill="#D3D4E0"/>
<path transform="translate(1825,349)" d="m0 0h10v1h-10z" fill="#525689"/>
<path transform="translate(1622,299)" d="m0 0 4 1z" fill="#525689"/>
<path transform="translate(1637,282)" d="m0 0 3 1z" fill="#8B8EB0"/>
<path transform="translate(319,125)" d="m0 0 3 1z" fill="#FEFEFE"/>
<path transform="translate(1833,342)" d="m0 0 2 1z" fill="#525689"/>
<path transform="translate(1682,329)" d="m0 0" fill="#FEFEFE"/>
<path transform="translate(1611,295)" d="m0 0 2 1z" fill="#525689"/>
<path transform="translate(1612,292)" d="m0 0 2 1z" fill="#525689"/>
<path transform="translate(276,70)" d="m0 0 2 1z" fill="#FEFEFE"/>
<path transform="translate(1625,353)" d="m0 0" fill="#FEFEFE"/>
<path transform="translate(1844,349)" d="m0 0" fill="#FEFEFE"/>
<path transform="translate(1842,349)" d="m0 0" fill="#525689"/>
<path transform="translate(440,341)" d="m0 0" fill="#FEFEFE"/>
<path transform="translate(1684,329)" d="m0 0" fill="#FEFEFE"/>
<path transform="translate(1610,289)" d="m0 0" fill="#525689"/>
<path transform="translate(678,210)" d="m0 0" fill="#FEFEFE"/>
</svg>
